<svg width="1376" height="522" viewBox="0 0 1376 522" fill="none" xmlns="http://www.w3.org/2000/svg">
	<g opacity="0.06">
		<path d="M1000.4 259.41C871.6 267.31 771.066 98.0296 881.595 1.6796C987.394 -90.0004 1152.27 63.2296 1038.13 153.33C1013.03 167.53 965.646 170.2 957.313 132.75C952.64 111.86 964.786 85.8896 986.286 82.6696C989.687 82.0496 1005.18 85.7996 1006.53 84.5396C1012.43 79.0596 992.955 58.3796 989.611 55.9496C983.677 51.6778 976.971 48.7217 969.904 47.2634C962.838 45.8051 955.561 45.8752 948.522 47.4696C924.089 53.0896 906.535 71.9796 904.127 98.1996C898.269 161.93 966.439 192.33 1017.65 186.04C1057.29 182.71 1091.33 153.34 1100.17 112.46C1103.87 98.3096 1104.17 81.9396 1114.42 70.8196C1132.47 51.2196 1165.06 59.8196 1172.29 85.8196C1177.78 183.2 1091.49 263.24 1000.4 259.41Z" fill="#F9F6ED" />
		<path d="M94.1503 -115.72C119.358 -116.23 142.779 -103.82 162.262 -88.4204C166.62 -87.5504 162.864 -86.4904 166.839 -89.6204C170.977 -92.8604 174.016 -102.4 177.265 -106.91C206.81 -148.79 262.003 -166.63 308.749 -148.5C314.052 -146.57 314.482 -145.43 318.362 -148.8C361.706 -232.8 484.629 -234.03 542.143 -165.5C550.122 -152.97 562.516 -147.05 573.247 -137.83C589.262 -118.59 580.184 -87.0704 557.002 -79.9804C527.313 -70.9104 510.887 -95.5005 492.77 -114.98C466.014 -145.34 414.309 -153.81 384.926 -123.03C376.03 -112.28 373.861 -98.5204 368.681 -85.8104C332.991 -15.9804 282.223 -115.32 238.42 -70.1904C216.347 -51.1904 225.816 -16.8805 208.578 4.34953C186.553 26.3495 158.335 18.8495 142.645 -6.71046C128.684 -24.1505 102.511 -56.8904 79.4348 -36.1604C69.1434 -26.9804 61.7283 -14.0105 68.3025 -0.0304718C76.3483 53.1895 -0.17257 59.2995 -8.67701 9.53954C-14.4486 -49.2805 36.3105 -115.13 94.1503 -115.72Z" fill="#F9F6ED" />
		<path d="M847.854 454.48C797.755 455.26 755.557 419.97 742.925 369.31C741.558 363.82 741.147 337.31 737.86 335.42C735.949 334.31 724.53 338.31 722.161 338.67C665.229 349.09 622.037 307.47 603.385 255.31C577.05 275.96 547.686 295.05 512.607 289.99C466.053 285.35 419.03 232.37 432.799 182.44C445.288 149.24 497.06 147.779 503.606 185.779C503.606 200.559 498.828 210.85 515.904 216.68C540.423 225.47 564.36 193.94 578.732 177.85C596.887 157.52 618.416 142.19 644.225 159.85C680.775 187.35 649.166 290.12 731.181 261.23C753.159 252.03 778.854 229.47 802.618 246.02C831.228 265.96 811.39 301.2 808.571 328.21C805.055 361.9 825.494 386.92 858.26 380.43C884.758 375.18 920.486 346.74 946.535 364.43C968.159 379.11 966.496 412.43 944.815 425.8C914.867 440.89 881.022 451.14 847.854 454.48Z" fill="#F9F6ED" />
		<path d="M1304.87 -180.75C1275.64 -181.37 1248.04 -172 1222.2 -158.6C1190.13 -142.17 1153.4 -175.91 1174.05 -209.97C1201.07 -237.65 1252.25 -248.83 1289.34 -252.61C1375.34 -262.02 1460.16 -206.61 1424.66 -107.3C1423.58 -99.9203 1422.1 -101.45 1430.71 -100.17C1501.35 -94.3304 1559.59 -29.6904 1549.4 46.1096C1543.36 102.67 1511.97 152.92 1474.21 192.32C1457.63 209.62 1444 233.46 1416.95 219.96C1392.37 207.7 1394.98 175.51 1410.47 156.62C1428.41 134.62 1448.61 116.91 1462.66 91.4396C1495.91 36.0396 1485.79 -25.6404 1414.88 -29.1504C1387.75 -31.4004 1351.87 -19.0504 1336.31 -51.3804C1322.74 -79.5604 1353.42 -110.38 1361.02 -136.15C1375.22 -172.76 1330.51 -182.44 1304.87 -180.75Z" fill="#F9F6ED" />
		<path d="M1286.84 117.07C1286.11 98.4096 1284.32 82.9696 1266.37 73.4196C1247 63.1096 1227.54 80.6096 1208.14 69.6996C1188.73 58.7896 1188.55 37.9096 1194.04 18.3896C1203.21 -6.11037 1200.05 -25.8904 1170.81 -24.7304C1149.24 -24.5004 1128.47 -8.73036 1107 -12.7304C1043.88 -28.2104 1111.93 -119.73 1067.03 -102.67C1050.94 -93.3204 1046.43 -69.6704 1024.68 -69.6704C1004.85 -67.9904 987.948 -85.2904 987.929 -105.8C1000.62 -191.63 1137 -204.91 1152.28 -111.63C1153 -92.0604 1153.65 -95.4304 1170.29 -97.2704C1216.25 -99.4004 1263.82 -66.1304 1267.22 -15.6404C1265.55 0.4496 1271.1 -0.470398 1284.08 2.6696C1329.2 18.7196 1357.66 64.6696 1356.38 113.75C1355.75 137.69 1348.16 163.27 1320.51 162.75C1295.04 162.42 1286.84 139.71 1286.84 117.07Z" fill="#F9F6ED" />
		<path d="M384.773 261.76C384.305 277.03 376.116 289.76 362.413 295.33C341.955 303.71 326.637 288.11 311.769 275.58C263.618 238.04 217.78 191.98 163.935 164.11C155.87 161.9 157.743 165.16 156.682 174.54C153.261 208.25 151.751 242.16 149.037 275.94C147.365 297.63 147.595 321.43 141.861 342.45C135.172 377.21 92.6788 392.38 73.9403 358.88C65.2161 342.36 73.9403 329.21 76.3196 312.58C79.5781 289.88 80.4094 266.58 81.9765 243.72C83.8208 178.95 83.7825 53.4295 178.211 91.4195C242.118 119.06 293.995 170.99 348.777 213.87C363.942 226.49 385.002 238.8 384.773 261.76Z" fill="#F9F6ED" />
		<path d="M517.375 405.279C635.071 401.489 743.574 491.889 765.38 613.149C771.563 646.559 772.643 703.259 734.411 716.809C710.159 726.369 683.623 702.379 689.232 675.809C690.943 667.089 697.479 660.979 699.093 652.409C700.594 579.169 644.789 508.099 579.028 486.409C536.668 472.779 492.779 477.13 450.095 486.35C430.984 490.47 411.758 501.349 394.3 486.499C387.805 480.879 383.482 472.981 382.136 464.275C380.789 455.568 382.511 446.647 386.98 439.169C404.687 410.639 485.613 406.909 517.375 405.279Z" fill="#F9F6ED" />
		<path d="M1366.2 456.84C1366.2 509.37 1333.16 510.32 1365.01 525.32C1441.64 576.32 1421.55 711.02 1336.96 740.389C1320.88 746.479 1300.61 755.07 1284.13 746.19C1277.02 742.305 1271.4 735.962 1268.25 728.239C1265.09 720.516 1264.59 711.888 1266.82 703.82C1278.9 666.6 1330.41 684.12 1340.74 641.58C1365.25 553.19 1249.12 596.339 1265.9 520.279C1272.21 500.099 1289.57 485.969 1295.41 465.379C1300.37 447.919 1287.34 426.2 1269.94 422.05C1252.57 421.79 1235.65 421.76 1227.11 402.19C1219.68 386.09 1225.13 367.01 1238.65 356.62C1295.84 323.82 1367.99 395.41 1366.2 456.84Z" fill="#F9F6ED" />
		<path d="M239.653 464.38C241.382 429.93 224.058 391.69 242.242 360.05C258.955 335.17 296.843 340.26 304.545 370.47C302.633 408.56 309.924 446.41 308.481 484.83C311.233 609.2 187.747 677.94 99.3199 587.95C77.8772 566.32 45.3597 526.83 54.5234 493.39C63.477 460.74 108.254 454.49 120.304 488.72C124.04 506.27 133.156 521.32 145.397 533.89C205.052 594.34 245.042 529.92 239.653 464.38Z" fill="#F9F6ED" />
		<path d="M524.494 -39.1203C558.407 -39.1203 706.05 -10.5403 658.071 51.4997C636.18 79.8397 601.932 51.8596 577.375 43.6096C521.599 23.6096 451.538 30.9397 413.21 82.1397C404.607 93.4503 397.655 106.034 392.58 119.48C387.707 132.33 386.101 146.48 375.084 155.57C355.609 171.57 325.92 161.07 320.082 135.77C324.755 30.7197 428.824 -42.9803 524.494 -39.1203Z" fill="#F9F6ED" />
		<path d="M1564.06 439.83C1561.7 473.2 1541.26 502.83 1531.83 534.49C1522.68 558.79 1515.21 589.15 1485.62 592.35C1452.91 595.62 1436.2 552.209 1459.36 529.129C1469.4 505.729 1476.97 480.909 1487.07 457.429C1490.58 448.629 1490.81 449.24 1483.5 443.48C1438.23 407.33 1386.23 381.069 1340.02 346.479C1319.4 330.319 1317.36 296.649 1342.35 283.279C1368.71 269.189 1389.29 293.819 1409.59 307.029C1445.25 335.669 1567.62 392.56 1564.06 439.83Z" fill="#F9F6ED" />
		<path d="M15.489 199.71C15.4317 258.71 -12.4132 307.12 -52.881 346.33C-69.565 362.5 -96.1772 361.78 -108.141 339.73C-125.341 307.97 -91.2179 286.73 -75.0977 265.21C-44.1472 223.85 -43.5644 140.06 -94.8681 114.21C-117.964 106.84 -141.318 97.9996 -137.104 67.2096C-132.441 38.4096 -105.217 34.4096 -82.8377 41.5596C-18.3664 62.3196 15.5463 132.56 15.489 199.71Z" fill="#F9F6ED" />
		<path d="M1029.52 553.56C1029.64 565.68 1025.92 574.559 1018.77 581.639C958.718 638.539 898.145 694.85 837.926 751.56C803.832 784.97 756.169 732.4 790.559 698.97C799.389 690.33 808.485 681.97 817.487 673.53C868.584 625.583 919.68 577.64 970.777 529.7C990.911 507.82 1030.32 523.78 1029.52 553.56Z" fill="#F9F6ED" />
		<path d="M1175.66 533.83C1174.77 567.29 1162.45 655.4 1126.59 664.22C1105.38 669.14 1084.24 652.059 1084.43 629.009C1084.54 616.429 1090.78 604.699 1095.05 593.259C1107.08 558.479 1115.9 510.72 1090 480.44C1075.02 464.89 1054.41 472.31 1038.58 460.44C1021.51 447.64 1019.47 421.11 1034.32 405.64C1050.8 388.46 1078.46 394.77 1097.98 402.13C1151.09 422.15 1175.33 477.78 1175.66 533.83Z" fill="#F9F6ED" />
		<path d="M817.439 -156.35C817.515 -131.3 808.839 -104.35 804.606 -79.7105C795.499 -26.4405 788.505 27.1795 779.341 80.4195C776.388 124.56 722.008 134.96 710.054 90.7195C715.682 14.4795 732.844 -61.8505 744.559 -137.67C748.725 -160.42 751.544 -188.08 778.443 -191.83C798.576 -194.64 817.735 -177.96 817.439 -156.35Z" fill="#F9F6ED" />
		<path d="M1279.2 215.609C1298.23 215.509 1313.94 230.61 1314.56 250.76C1315.34 276.95 1292.48 286.189 1272.68 293.429C1224.15 311.549 1174.94 329.109 1125.62 344.189C1071.36 345.049 1073.06 275.039 1128.48 266.549C1167.23 256.549 1204.46 241.349 1242.19 227.909C1253.38 223.809 1267.15 215.179 1279.2 215.609Z" fill="#F9F6ED" />
	</g>
</svg>
