<svg width="48" height="50" viewBox="0 0 48 50" fill="none" xmlns="http://www.w3.org/2000/svg">
	<g clip-path="url(#clip0_4431_12)">
		<path d="M47.2561 15.9501C46.9311 18.0695 46.0992 20.079 44.831 21.8078C42.4496 13.6854 33.2266 7.2404 22.4647 7.0829C24.0475 4.39658 26.5173 2.34612 29.449 1.28453C32.3806 0.222927 35.5907 0.216614 38.5265 1.26667C41.4623 2.31673 43.9401 4.35746 45.5335 7.03753C47.1269 9.7176 47.736 12.8693 47.2561 15.9501Z" fill="#F89C22" />
		<path d="M26.2133 28.0944C19.4874 28.3088 13.7284 30.0327 8.09175 32.4473C7.64773 29.5925 8.78815 26.2348 10.5026 24.0545C10.7991 23.6916 11.1323 23.3603 11.4969 23.0659C11.711 22.896 11.9778 22.8066 12.2511 22.8132C12.5243 22.8198 12.7865 22.9219 12.9922 23.1019C13.9732 23.9558 15.05 24.6921 16.3233 25.0545C18.8669 25.7727 20.8613 24.4217 22.1668 22.4739C22.2547 22.3416 22.3909 22.249 22.5463 22.2158C22.6521 22.1923 22.7622 22.196 22.8662 22.2266C22.9702 22.2571 23.0648 22.3134 23.1412 22.3904C25.0178 24.2879 27.441 24.6532 30.0017 22.9454C30.114 22.8726 30.247 22.8388 30.3804 22.8491C30.5138 22.8594 30.6401 22.9132 30.7399 23.0023C31.3836 23.5686 31.9656 24.2015 32.4761 24.8904C33.0725 25.6946 33.5933 26.5521 34.0321 27.4521C34.0848 27.5572 34.1082 27.6746 34.0997 27.792C34.0911 27.9093 34.0511 28.0221 33.9837 28.1185C33.9164 28.2149 33.8242 28.2914 33.717 28.3397C33.6098 28.3881 33.4915 28.4066 33.3746 28.3932C30.9986 28.1107 28.6045 28.0108 26.2133 28.0944Z" fill="#78BD43" />
		<path d="M23.0121 50.3506C18.9597 50.8166 14.8608 50.0523 11.2487 48.1572C7.63652 46.262 4.67827 43.3237 2.75872 39.7244C2.72361 39.658 2.68851 39.5935 2.6553 39.5271C4.00249 38.3431 5.43349 37.258 6.9371 36.2804C14.0045 43.5859 25.9609 42.8819 32.7342 35.1836C33.5701 34.3411 33.294 32.8363 32.201 32.3572C31.7767 32.1616 31.2921 32.1424 30.8536 32.3037C30.4152 32.4651 30.0586 32.7938 29.8623 33.2177C28.996 35.0973 27.4182 36.677 25.5472 37.7718C23.6378 38.8683 21.4804 39.46 19.2787 39.491C15.4514 39.6219 11.5937 37.8838 9.20941 34.9103C17.2901 30.4084 27.0738 28.7263 35.9648 30.954C36.7627 31.1712 37.5169 30.3373 37.2257 29.5612C36.6329 27.6872 35.7716 25.9091 34.6687 24.2822C34.1997 23.5983 33.6823 22.949 33.1203 22.3391C32.4641 21.6286 31.7218 21.0026 30.9106 20.4757C30.4742 20.1911 29.9562 20.1608 29.5359 20.6864C28.9049 21.4748 27.3347 22.8344 25.9249 22.378C24.515 21.9217 23.736 20.4179 23.4913 18.916C23.3015 17.731 21.7579 17.5716 21.384 18.7376C21.2616 19.1171 21.0994 19.7651 20.8622 20.4701C20.3755 21.915 19.5833 23.6095 18.2 23.7908C16.1013 24.0071 14.4998 21.9672 13.8157 20.1152C13.5491 19.3951 12.8043 19.1437 11.9381 19.6778C10.0994 20.7718 6.44944 26.2111 5.77107 30.4938C5.63919 31.454 5.52533 32.4929 5.60788 33.5517C4.12305 34.2377 2.63822 34.9635 1.13727 35.714C0.840312 34.6596 0.628374 33.5831 0.503489 32.4948C-0.771659 21.3439 7.22363 11.2698 18.3707 9.98804C18.4713 9.9757 18.5719 9.96527 18.6725 9.95483C26.8053 9.11896 36.237 12.2499 41.1839 18.3334C42.9866 20.545 44.1906 23.1465 44.5293 26.0896C45.8111 37.2367 34.1564 49.0679 23.0121 50.3506Z" fill="#78BD43" />
	</g>
	<defs>
		<clipPath id="clip0_4431_12">
			<rect width="47.0427" height="50" fill="white" />
		</clipPath>
	</defs>
</svg>
