<svg width="227" height="120" viewBox="0 0 227 120" fill="none" xmlns="http://www.w3.org/2000/svg">
	<path d="M112.518 37.1029C111.737 42.1895 109.74 47.0127 106.698 51.1628C100.984 31.6818 78.8484 16.214 53.0195 15.834C56.8191 9.39056 62.7454 4.47271 69.779 1.92643C76.8125 -0.619841 84.5136 -0.63534 91.5574 1.8826C98.6011 4.40054 104.547 9.2945 108.373 15.7226C112.198 22.1507 113.664 29.711 112.518 37.1029Z" fill="#F89C22" />
	<path d="M62.0133 66.2534C45.8839 66.7673 32.0509 70.9009 18.5131 76.702C17.4469 69.8483 20.1835 61.7918 24.2978 56.5594C25.0134 55.6906 25.8168 54.8981 26.6954 54.1946C27.2095 53.7871 27.8501 53.5728 28.5059 53.5887C29.1617 53.6047 29.7912 53.8501 30.2848 54.2821C32.6386 56.3297 35.2221 58.1094 38.2785 58.9678C44.383 60.6929 49.1699 57.4478 52.3028 52.7758C52.5147 52.4578 52.8423 52.2351 53.2159 52.1552C53.47 52.0988 53.7342 52.1078 53.9838 52.1814C54.2334 52.2551 54.4602 52.3909 54.643 52.5762C59.1483 57.1307 64.963 58.0055 71.1086 53.9076C71.3777 53.7318 71.6972 53.6499 72.0176 53.6747C72.338 53.6994 72.6412 53.8293 72.8801 54.0443C74.4258 55.4021 75.8224 56.9206 77.0464 58.5742C78.4788 60.5022 79.7298 62.5586 80.7835 64.717C80.9089 64.9693 80.9641 65.2508 80.9432 65.5318C80.9223 65.8128 80.8261 66.083 80.6647 66.314C80.5034 66.545 80.2828 66.7283 80.0261 66.8446C79.7695 66.961 79.4862 67.006 79.2061 66.9751C73.502 66.2961 67.7543 66.0548 62.0133 66.2534Z" fill="#78BD43" />
	<path d="M54.3316 119.677C44.6059 120.795 34.7688 118.961 26.0999 114.412C17.4309 109.864 10.3314 102.812 5.72473 94.1735L5.46775 93.7005C8.70018 90.8582 12.1347 88.2542 15.7441 85.9092C32.6936 103.441 61.3985 101.752 77.6564 83.2765C79.663 81.2535 79.0014 77.6422 76.377 76.4913C75.3575 76.0224 74.1936 75.9775 73.1411 76.3666C72.0886 76.7558 71.2337 77.5469 70.7645 78.5662C68.6868 83.077 64.8978 86.8688 60.4089 89.5014C55.8281 92.1295 50.6536 93.5482 45.373 93.624C36.1874 93.9383 26.939 89.7693 21.2062 82.6341C40.5998 71.8274 64.0804 67.7896 85.4231 73.1369C87.3368 73.659 89.1465 71.6579 88.4467 69.7935C87.0233 65.2965 84.9561 61.0294 82.3093 57.125C81.1851 55.4828 79.9434 53.9241 78.5941 52.4612C77.0197 50.7569 75.239 49.2554 73.2933 47.9914C72.2435 47.3162 70.9996 47.2342 69.9908 48.4944C68.4763 50.389 64.7091 53.6504 61.3247 52.5541C57.9402 51.4579 56.0731 47.8411 55.4962 44.2379C55.0342 41.3948 51.3354 41.012 50.4387 43.8087C50.1435 44.7245 49.7525 46.2691 49.1866 47.9668C48.0193 51.436 46.1166 55.5012 42.7977 55.9358C37.7594 56.4525 33.9102 51.5618 32.2726 47.1139C31.6357 45.3861 29.8477 44.7819 27.7701 46.0641C23.355 48.6885 14.5959 61.7424 12.9748 72.0106C12.6494 74.3152 12.3761 76.8193 12.5756 79.3481C9.02169 80.9884 5.44862 82.738 1.84821 84.5423C-0.0736703 77.7426 -0.49566 70.6066 0.61142 63.6278C1.7185 56.649 4.32823 49.994 8.26013 44.1229C12.192 38.2518 17.3523 33.3049 23.3839 29.6241C29.4156 25.9434 36.1749 23.6167 43.1941 22.805L43.9186 22.7257C63.4352 20.7273 86.0655 28.2343 97.9466 42.8355C102.261 48.1418 105.158 54.3858 105.973 61.4499C109.049 88.2028 81.0764 116.599 54.3316 119.677Z" fill="#78BD43" />
	<path d="M141.974 65.3541C141.464 65.0983 140.904 64.9583 140.334 64.9441C139.013 64.9441 138.023 65.8234 137.365 67.5822L134.85 74.4167C134.6 73.8699 133.789 71.6701 132.417 67.8173L132.086 67.1174C131.787 66.5905 131.371 66.1395 130.869 65.7997C130.254 65.3511 129.507 65.1185 128.745 65.1382C127.92 65.1382 127.109 65.5364 126.312 66.3328C125.885 66.7246 125.572 67.2242 125.405 67.779L122.971 74.4577C121.488 70.3898 120.512 67.8054 120.044 66.7046C119.959 66.4529 119.849 66.211 119.713 65.9829C119.49 65.6443 119.182 65.3696 118.821 65.1855C118.46 65.0015 118.057 64.9145 117.652 64.9331C116.909 64.9813 116.183 65.1667 115.508 65.4799C113.939 66.1123 113.155 66.978 113.157 68.077C113.229 68.6284 113.368 69.1691 113.57 69.6872L119.798 84.8625C120.053 85.4394 120.45 85.9425 120.951 86.3251C121.555 86.816 122.316 87.0723 123.095 87.0468C123.52 87.0453 123.941 86.9567 124.331 86.7865C124.722 86.6163 125.073 86.3681 125.364 86.0572C125.788 85.6045 126.129 85.0807 126.372 84.5098C126.416 84.3868 126.512 84.1408 126.665 83.7663C126.818 83.3917 127.157 82.4622 127.695 80.9641C128.234 79.466 128.636 78.3861 128.912 77.7273C130.312 81.4671 131.122 83.6113 131.342 84.1599L131.673 84.8625C131.933 85.443 132.338 85.9467 132.849 86.3251C133.356 86.774 134.006 87.0296 134.683 87.0468C135.221 87.0639 135.756 86.9651 136.252 86.757C137.211 86.2613 137.898 85.4093 138.314 84.2009L142.849 73.1482C143.152 72.38 143.521 71.4806 143.964 70.4499C144.407 69.4193 144.623 68.6675 144.623 68.2C144.62 67.0737 143.737 66.1251 141.974 65.3541Z" fill="#F89C22" />
	<path d="M163.095 84.8269C162.053 83.5087 161.257 82.013 160.747 80.4118L160.362 80.5512C159.45 80.8829 158.199 81.0488 156.608 81.0488C155.643 81.0348 154.7 80.764 153.874 80.2642C152.969 79.742 152.507 79.0941 152.507 78.3232H160.261C160.167 77.6639 160.12 76.9988 160.121 76.333C160.121 72.5904 161.305 69.4985 163.648 67.1447C161.9 65.468 159.521 64.6305 156.51 64.6323C153.156 64.6323 150.359 65.6703 148.117 67.7461C145.875 69.822 144.754 72.5922 144.754 76.0569C144.741 78.7689 145.659 81.4033 147.354 83.5201C148.328 84.7471 149.598 85.7058 151.045 86.3059C152.759 87.032 154.607 87.3896 156.469 87.3556C160.143 87.3556 162.664 86.8736 164.033 85.9095C163.693 85.5734 163.38 85.2115 163.095 84.8269ZM153.773 72.2514C154.653 71.5224 155.54 71.1579 156.433 71.1579C157.326 71.1579 158.013 71.3502 158.494 71.7347C158.727 71.9139 158.914 72.1455 159.04 72.4106C159.166 72.6757 159.227 72.9668 159.219 73.2602C159.219 74.1405 158.694 74.5806 157.65 74.5806H152.456C152.454 73.7495 152.893 72.9695 153.773 72.2405V72.2514Z" fill="#F89C22" />
	<path d="M180.026 79.9088C179.454 79.9463 178.896 80.1007 178.386 80.3626L177.932 80.5293C177.02 80.8574 175.769 81.0214 174.178 81.0214C173.214 81.0093 172.27 80.7394 171.444 80.2396C170.533 79.7183 170.078 79.0722 170.078 78.3013H179.851C180.374 78.2964 180.89 78.1869 181.37 77.9794C181.85 77.7719 182.283 77.4705 182.645 77.093C183.481 76.2801 183.901 75.0289 183.902 73.3395C183.91 71.6752 183.422 70.0463 182.503 68.6592C180.711 65.9673 177.906 64.6205 174.088 64.6187C170.735 64.6187 167.937 65.6566 165.695 67.7324C163.454 69.8083 162.334 72.5776 162.335 76.0405C162.323 78.7527 163.239 81.3876 164.933 83.5064C165.908 84.7324 167.179 85.6902 168.626 86.2895C170.339 87.0186 172.186 87.3772 174.047 87.342C179.903 87.342 182.831 86.1181 182.831 83.6705C182.79 83.0056 182.603 82.358 182.284 81.7732C181.657 80.5321 180.904 79.9106 180.026 79.9088ZM171.324 72.2186C172.204 71.4896 173.091 71.1251 173.984 71.1251C174.878 71.1251 175.564 71.3192 176.048 71.7019C176.28 71.8821 176.466 72.1144 176.591 72.3799C176.716 72.6455 176.776 72.9368 176.767 73.2301C176.767 74.1067 176.245 74.546 175.201 74.5478H170.006C170.006 73.7258 170.446 72.9494 171.324 72.2186Z" fill="#78BD43" />
	<path d="M225.085 66.1742C224.746 65.9798 224.376 65.8465 223.991 65.7805C223.525 65.7342 223.057 65.7141 222.589 65.7204C221.971 65.7204 221.059 65.7751 219.855 65.8844V61.8439C219.884 61.1359 219.814 60.4275 219.647 59.7388C219.292 58.7219 218.178 58.2134 216.306 58.2134C214.548 58.2134 213.49 58.5569 213.132 59.244C212.935 59.5445 212.802 59.8823 212.741 60.2364C212.692 60.7012 212.671 61.1687 212.679 61.6361V65.8844L211.312 65.7204C210.718 65.704 210.137 65.8976 209.671 66.2671C209.378 66.5686 209.178 66.9483 209.095 67.3607C208.927 68.1695 208.857 68.9956 208.887 69.8211C208.887 70.9501 209.086 71.7347 209.485 72.2131C209.668 72.436 209.898 72.6149 210.158 72.7365C210.419 72.8582 210.704 72.9194 210.992 72.9157C211.557 72.9177 212.122 72.8757 212.681 72.79V78.8945C212.681 81.9728 213.424 84.1598 214.909 85.4557C216.395 86.7515 218.567 87.3985 221.427 87.3967C221.888 87.4033 222.349 87.3823 222.807 87.3338C223.187 87.2728 223.556 87.1548 223.901 86.9839C224.672 86.5993 225.057 85.5404 225.057 83.8072C225.057 82.3236 224.741 81.4024 224.109 81.0433C223.773 80.8422 223.402 80.7093 223.015 80.6524C222.522 80.6052 222.026 80.5851 221.531 80.5922C220.885 80.5922 220.437 80.4255 220.213 80.0947C219.989 79.7639 219.86 79.2308 219.86 78.4872V72.7708L222.542 72.9349C223.017 72.9427 223.491 72.9226 223.964 72.8747C224.344 72.8148 224.713 72.6968 225.057 72.5248C225.797 72.1384 226.168 71.0795 226.17 69.3481C226.172 67.6167 225.81 66.5587 225.085 66.1742Z" fill="#78BD43" />
	<path d="M207.648 66.8823C207.582 66.4806 207.45 66.0926 207.257 65.7341C207.14 65.5101 206.977 65.3132 206.778 65.1559C206.58 64.9987 206.351 64.8846 206.106 64.821C205.284 64.6109 204.437 64.5188 203.589 64.5476C201.473 64.5476 200.328 65.3577 200.155 66.978C199.923 66.6575 199.662 66.36 199.373 66.0895C198.867 65.6725 198.295 65.3418 197.681 65.1108C196.827 64.756 195.91 64.5792 194.985 64.5914C192.407 64.5914 190.037 65.7277 187.878 68.0004C185.718 70.2731 184.639 72.9231 184.641 75.9503C184.641 78.9775 185.713 81.6339 187.858 83.9193C190.004 86.2048 192.327 87.3484 194.83 87.3502C197.334 87.3502 199.122 86.5838 200.193 85.0511C200.217 85.3869 200.313 85.7136 200.473 86.0093C200.634 86.305 200.857 86.5627 201.126 86.7652C201.672 87.1561 202.719 87.3502 204.299 87.3502C205.88 87.3502 206.869 86.9757 207.274 86.2239C207.455 85.8612 207.579 85.4731 207.643 85.073C207.695 84.5744 207.716 84.0733 207.708 83.5721V68.3831C207.718 67.8821 207.698 67.3809 207.648 66.8823ZM198.785 78.5911C198.453 78.9696 198.042 79.2708 197.581 79.4734C197.12 79.676 196.621 79.7752 196.117 79.7639C195.607 79.7706 195.101 79.6719 194.63 79.4738C194.16 79.2758 193.735 78.9827 193.383 78.613C193.032 78.2797 192.751 77.8789 192.557 77.4345C192.364 76.9902 192.262 76.5115 192.257 76.0268C192.268 75.0425 192.647 74.0978 193.318 73.3778C193.662 72.9833 194.09 72.6705 194.571 72.462C195.051 72.2535 195.572 72.1545 196.095 72.1722C196.614 72.1529 197.129 72.2525 197.603 72.4634C198.077 72.6742 198.496 72.9908 198.829 73.3887C199.468 74.1099 199.827 75.0362 199.841 75.9995C199.835 76.9669 199.457 77.8951 198.785 78.5911Z" fill="#78BD43" />
	<path d="M119.308 97.8699C119.134 97.88 118.959 97.8381 118.808 97.7496C118.699 97.6776 118.611 97.5775 118.554 97.4598C118.502 97.3477 118.461 97.2493 118.428 97.17L116.733 92.949C116.681 92.7912 116.654 92.626 116.654 92.4597C116.655 92.3964 116.668 92.3339 116.693 92.2758C116.718 92.2176 116.754 92.1649 116.799 92.1207C116.927 92.0091 117.077 91.9253 117.239 91.8747C117.47 91.756 117.733 91.7175 117.988 91.7653C118.095 91.806 118.191 91.8724 118.267 91.9586C118.343 92.0449 118.396 92.1484 118.423 92.2601L119.317 94.6905L120.115 92.4542C120.153 92.3601 120.198 92.2688 120.249 92.1808C120.313 92.0708 120.402 91.9772 120.509 91.9075C120.651 91.8198 120.817 91.7778 120.984 91.7872C121.162 91.7772 121.339 91.819 121.493 91.9075C121.604 91.9762 121.697 92.0698 121.766 92.1808C121.819 92.2668 121.862 92.3586 121.895 92.4542L122.69 94.6905L123.538 92.405C123.612 92.1583 123.77 91.9449 123.983 91.8008C124.101 91.7503 124.229 91.7274 124.357 91.734C124.485 91.7407 124.61 91.7766 124.721 91.8391C124.957 91.9221 125.16 92.0782 125.301 92.2847C125.352 92.3917 125.376 92.5098 125.369 92.6282C125.363 92.7466 125.327 92.8616 125.265 92.9627L123.562 97.1673C123.523 97.27 123.479 97.3704 123.428 97.468C123.368 97.5793 123.281 97.6734 123.174 97.7414C123.032 97.8261 122.869 97.8661 122.704 97.8562C122.536 97.8657 122.369 97.8298 122.22 97.7523C122.11 97.6864 122.02 97.5919 121.96 97.4789C121.902 97.3699 121.851 97.2566 121.81 97.1399L120.99 94.9174L120.191 97.1399C120.134 97.2848 120.082 97.4133 120.036 97.5199C119.988 97.6284 119.904 97.7165 119.798 97.7687C119.645 97.8403 119.477 97.875 119.308 97.8699Z" fill="#E35205" />
	<path d="M128.989 97.96C128.489 97.9731 127.992 97.88 127.532 97.6866C127.149 97.5188 126.808 97.2686 126.534 96.954C126.279 96.6577 126.084 96.3152 125.96 95.9452C125.838 95.5876 125.776 95.2128 125.774 94.8353C125.763 94.2723 125.905 93.7169 126.184 93.2278C126.456 92.7624 126.849 92.3797 127.321 92.1206C127.833 91.8444 128.407 91.705 128.989 91.716C129.404 91.7073 129.817 91.7836 130.203 91.9402C130.521 92.0734 130.808 92.2707 131.047 92.5197C131.259 92.7421 131.427 93.0028 131.542 93.2879C131.646 93.5366 131.702 93.8029 131.706 94.0725C131.721 94.2496 131.7 94.4278 131.645 94.5968C131.59 94.7657 131.502 94.9221 131.386 95.0567C131.279 95.1644 131.151 95.2487 131.01 95.3043C130.869 95.3598 130.718 95.3854 130.566 95.3793H127.696C127.707 95.5761 127.785 95.7631 127.917 95.9096C128.057 96.0589 128.229 96.1747 128.42 96.2486C128.624 96.3289 128.841 96.3697 129.06 96.3689C129.23 96.37 129.4 96.3599 129.568 96.3388C129.696 96.3226 129.821 96.2943 129.943 96.2541C130.047 96.2186 130.142 96.1803 130.233 96.1448L130.468 96.0545C130.532 96.0308 130.599 96.0143 130.667 96.0053C130.787 95.9971 130.905 96.0342 130.998 96.1092C131.113 96.2031 131.206 96.3206 131.271 96.4537C131.323 96.5316 131.362 96.6175 131.386 96.7079C131.406 96.7867 131.416 96.8674 131.416 96.9485C131.412 97.0523 131.383 97.1536 131.332 97.2439C131.28 97.3343 131.208 97.411 131.121 97.4679C130.87 97.6439 130.587 97.7675 130.287 97.8315C129.861 97.9252 129.425 97.9683 128.989 97.96ZM127.696 94.3842H129.609C129.705 94.3895 129.8 94.3667 129.883 94.3186C129.917 94.2853 129.943 94.2445 129.959 94.1994C129.974 94.1543 129.979 94.1062 129.973 94.0589C129.976 93.9201 129.928 93.7851 129.839 93.6789C129.744 93.565 129.622 93.4774 129.484 93.4246C129.32 93.3618 129.145 93.3312 128.97 93.3344C128.74 93.3293 128.512 93.379 128.305 93.4793C128.123 93.5655 127.966 93.6985 127.851 93.8648C127.749 94.0184 127.694 94.1994 127.696 94.3842Z" fill="#E35205" />
	<path d="M140.32 97.8399C140.09 97.8571 139.86 97.8026 139.662 97.684C139.598 97.6412 139.545 97.5835 139.509 97.5158C139.472 97.4482 139.452 97.3727 139.451 97.2958L139.571 97.0908C139.497 97.2036 139.405 97.3033 139.298 97.3861C139.138 97.5178 138.958 97.6239 138.765 97.7004C138.504 97.8021 138.225 97.8495 137.945 97.8399C137.578 97.8413 137.217 97.759 136.887 97.5993C136.55 97.435 136.248 97.2066 135.998 96.9268C135.741 96.6405 135.535 96.3122 135.389 95.9563C135.24 95.5918 135.164 95.2017 135.165 94.8081C135.164 94.4206 135.24 94.0369 135.389 93.679C135.535 93.3255 135.745 93.0014 136.007 92.7222C136.26 92.4518 136.56 92.2296 136.892 92.0661C137.22 91.905 137.58 91.8218 137.945 91.8228C138.204 91.8164 138.462 91.86 138.705 91.9513C138.894 92.0241 139.071 92.1235 139.232 92.2465C139.353 92.34 139.461 92.4494 139.552 92.5718L139.454 92.4023C139.446 92.3179 139.46 92.2328 139.495 92.1556C139.53 92.0783 139.585 92.0116 139.653 91.9622C139.858 91.846 140.092 91.7937 140.326 91.8118C140.541 91.7941 140.757 91.8397 140.947 91.9431C141.006 91.9838 141.057 92.0359 141.097 92.0964C141.136 92.1569 141.163 92.2247 141.176 92.2957C141.206 92.446 141.221 92.599 141.22 92.7523V96.9213C141.221 97.0719 141.206 97.2221 141.176 97.3697C141.164 97.4398 141.137 97.5066 141.097 97.5659C141.058 97.6252 141.006 97.6756 140.947 97.7141C140.753 97.813 140.537 97.8565 140.32 97.8399ZM138.218 96.041C138.421 96.0431 138.621 95.9861 138.792 95.877C138.964 95.7676 139.105 95.6161 139.202 95.4369C139.305 95.2473 139.358 95.0346 139.355 94.819C139.359 94.6018 139.304 94.3876 139.197 94.1984C139.096 94.019 138.95 93.8691 138.773 93.7638C138.6 93.655 138.398 93.598 138.194 93.5997C137.975 93.5963 137.76 93.655 137.573 93.7692C137.393 93.879 137.244 94.0322 137.138 94.2148C137.028 94.4057 136.971 94.623 136.974 94.8436C136.972 95.0546 137.029 95.2619 137.138 95.4423C137.247 95.6235 137.4 95.7733 137.584 95.877C137.777 95.9872 137.996 96.0439 138.218 96.041Z" fill="#E35205" />
	<path d="M143.101 97.8532C142.881 97.8709 142.661 97.8263 142.466 97.7247C142.406 97.6863 142.355 97.6358 142.315 97.5765C142.276 97.5172 142.249 97.4504 142.237 97.3803C142.207 97.2336 142.192 97.0843 142.193 96.9347V92.7164C142.192 92.5665 142.208 92.4169 142.242 92.2708C142.275 92.1335 142.359 92.014 142.477 91.9373C142.673 91.8372 142.892 91.7936 143.111 91.8115C143.321 91.7962 143.531 91.8358 143.721 91.9264C143.831 91.9842 143.916 92.082 143.956 92.1997C143.986 92.2832 144.003 92.3708 144.005 92.4594L143.861 92.5333C143.897 92.4699 143.94 92.4103 143.989 92.3556C144.069 92.2536 144.16 92.1617 144.262 92.0822C144.398 91.9828 144.547 91.9036 144.705 91.8471C144.896 91.7793 145.098 91.7469 145.301 91.7514C145.391 91.7514 145.49 91.7514 145.599 91.7678C145.714 91.7828 145.828 91.8075 145.938 91.8416C146.05 91.8764 146.158 91.9251 146.258 91.9865C146.352 92.0436 146.432 92.12 146.493 92.2107C146.556 92.3073 146.587 92.4209 146.583 92.536C146.593 92.8325 146.513 93.1249 146.354 93.3753C146.295 93.4781 146.211 93.5639 146.11 93.6243C146.008 93.6847 145.892 93.7176 145.774 93.7197C145.623 93.7373 145.47 93.6984 145.345 93.6104C145.305 93.5842 145.263 93.5622 145.219 93.5448C145.13 93.5197 145.038 93.5096 144.946 93.5147C144.829 93.5142 144.713 93.5307 144.601 93.5639C144.493 93.5955 144.391 93.6465 144.301 93.7143C144.209 93.7807 144.134 93.8678 144.082 93.9685C144.03 94.071 144.004 94.1845 144.005 94.2993V96.9593C144.005 97.1071 143.99 97.2544 143.962 97.3994C143.948 97.4682 143.921 97.5333 143.88 97.5903C143.839 97.6474 143.787 97.6951 143.727 97.7302C143.532 97.8251 143.316 97.8675 143.101 97.8532Z" fill="#E35205" />
	<path d="M150.301 97.96C149.802 97.9732 149.305 97.88 148.844 97.6867C148.462 97.5195 148.122 97.2692 147.849 96.954C147.593 96.6591 147.398 96.3162 147.275 95.9452C147.151 95.5882 147.088 95.2131 147.086 94.8353C147.076 94.2723 147.217 93.7169 147.497 93.2278C147.768 92.7625 148.161 92.3798 148.634 92.1206C149.146 91.8448 149.72 91.7054 150.301 91.716C150.717 91.7071 151.13 91.7833 151.515 91.9402C151.833 92.0735 152.121 92.2707 152.36 92.5198C152.572 92.7422 152.74 93.0029 152.855 93.288C152.959 93.5367 153.015 93.803 153.019 94.0726C153.033 94.2496 153.013 94.4278 152.958 94.5968C152.903 94.7658 152.815 94.9221 152.699 95.0567C152.592 95.1645 152.464 95.2488 152.323 95.3043C152.182 95.3599 152.03 95.3854 151.879 95.3793H149.008C149.02 95.5767 149.099 95.764 149.232 95.9097C149.371 96.0593 149.542 96.1753 149.733 96.2487C149.937 96.3287 150.154 96.3695 150.372 96.369C150.542 96.37 150.712 96.3599 150.881 96.3389C151.008 96.323 151.134 96.2946 151.255 96.2541C151.359 96.2186 151.458 96.1803 151.545 96.1448L151.78 96.0546C151.845 96.0308 151.912 96.0143 151.98 96.0054C152.1 95.9975 152.219 96.0345 152.313 96.1093C152.428 96.2031 152.522 96.3206 152.587 96.4537C152.64 96.5311 152.679 96.6171 152.702 96.708C152.721 96.7867 152.731 96.8674 152.732 96.9485C152.727 97.0524 152.698 97.1536 152.647 97.244C152.596 97.3343 152.523 97.4111 152.436 97.468C152.186 97.6445 151.902 97.7682 151.603 97.8315C151.175 97.9254 150.739 97.9686 150.301 97.96ZM149.008 94.3842H150.922C151.018 94.3896 151.113 94.3668 151.195 94.3186C151.23 94.2854 151.256 94.2446 151.271 94.1995C151.287 94.1544 151.292 94.1062 151.286 94.0589C151.289 93.9202 151.241 93.7851 151.152 93.6789C151.057 93.5645 150.935 93.4768 150.796 93.4247C150.632 93.3619 150.458 93.3312 150.282 93.3345C150.052 93.3294 149.825 93.379 149.618 93.4793C149.436 93.5663 149.279 93.6992 149.164 93.8648C149.061 94.0185 149.007 94.1994 149.008 94.3842Z" fill="#E35205" />
	<path d="M159.036 97.8699C158.861 97.8803 158.687 97.8384 158.536 97.7496C158.427 97.6776 158.339 97.5775 158.282 97.4598C158.23 97.3477 158.186 97.2493 158.156 97.17L156.45 92.949C156.4 92.7908 156.374 92.6258 156.373 92.4597C156.374 92.3964 156.387 92.3339 156.412 92.2758C156.437 92.2176 156.473 92.1649 156.518 92.1207C156.646 92.0079 156.796 91.924 156.958 91.8747C157.189 91.756 157.453 91.7175 157.708 91.7653C157.815 91.806 157.911 91.8724 157.986 91.9586C158.062 92.0449 158.116 92.1484 158.142 92.2601L159.036 94.6905L159.834 92.4542C159.873 92.3607 159.917 92.2694 159.966 92.1808C160.035 92.0704 160.129 91.977 160.239 91.9075C160.383 91.8205 160.55 91.7786 160.717 91.7872C160.895 91.7777 161.071 91.8194 161.226 91.9075C161.337 91.9762 161.431 92.0698 161.499 92.1808C161.551 92.2675 161.594 92.359 161.628 92.4542L162.423 94.6905L163.271 92.405C163.343 92.1573 163.501 91.9433 163.716 91.8008C163.834 91.7503 163.962 91.7274 164.09 91.734C164.218 91.7407 164.343 91.7766 164.455 91.8391C164.69 91.9229 164.893 92.0789 165.034 92.2847C165.085 92.3917 165.109 92.5098 165.102 92.6282C165.096 92.7466 165.061 92.8616 164.999 92.9627L163.293 97.1673C163.255 97.27 163.211 97.3704 163.161 97.468C163.101 97.5787 163.013 97.6726 162.907 97.7414C162.766 97.8261 162.602 97.8661 162.437 97.8562C162.269 97.8657 162.102 97.8298 161.953 97.7523C161.838 97.6893 161.743 97.5944 161.68 97.4789C161.62 97.3704 161.57 97.257 161.529 97.1399L160.709 94.9174L159.927 97.1509C159.87 97.2958 159.818 97.4243 159.769 97.5309C159.723 97.6397 159.64 97.7281 159.534 97.7797C159.377 97.8482 159.207 97.8791 159.036 97.8699Z" fill="#E35205" />
	<path d="M166.576 97.8536C166.358 97.8696 166.141 97.8251 165.947 97.7251C165.886 97.688 165.834 97.6387 165.794 97.5803C165.753 97.522 165.725 97.4558 165.712 97.3861C165.683 97.2375 165.668 97.0864 165.668 96.935V89.9748C165.667 89.8239 165.684 89.6735 165.717 89.5264C165.734 89.4579 165.764 89.3933 165.806 89.3365C165.847 89.2797 165.9 89.2318 165.961 89.1956C166.153 89.0955 166.37 89.051 166.587 89.0671C166.807 89.0495 167.027 89.096 167.221 89.2011C167.338 89.2801 167.421 89.4016 167.451 89.5401C167.481 89.6866 167.496 89.836 167.494 89.9857V92.4461C167.66 92.2762 167.849 92.1299 168.055 92.0114C168.304 91.8695 168.588 91.7986 168.875 91.8064C169.351 91.7994 169.818 91.9315 170.22 92.1864C170.624 92.4454 170.954 92.8053 171.177 93.2307C171.42 93.7007 171.543 94.2242 171.532 94.7534V96.9405C171.533 97.0913 171.517 97.2418 171.483 97.3888C171.453 97.525 171.37 97.6438 171.253 97.7196C171.057 97.8224 170.835 97.8669 170.614 97.8481C170.398 97.8626 170.183 97.8181 169.99 97.7196C169.929 97.6831 169.875 97.6341 169.834 97.5757C169.793 97.5173 169.764 97.4508 169.75 97.3806C169.721 97.2319 169.708 97.0809 169.709 96.9295V94.7425C169.715 94.5361 169.673 94.3311 169.586 94.1438C169.503 93.9869 169.376 93.8569 169.222 93.7693C169.048 93.6683 168.849 93.6181 168.648 93.6244C168.364 93.619 168.087 93.7161 167.869 93.8978C167.765 93.977 167.678 94.076 167.613 94.1891C167.548 94.3022 167.505 94.4271 167.489 94.5566V96.9596C167.49 97.1105 167.474 97.261 167.44 97.408C167.407 97.5443 167.322 97.6627 167.204 97.7387C167.01 97.8344 166.792 97.8741 166.576 97.8536Z" fill="#E35205" />
	<path d="M177.342 97.8398C177.111 97.8573 176.881 97.8029 176.683 97.6839C176.618 97.6416 176.565 97.584 176.529 97.5163C176.492 97.4485 176.473 97.3728 176.472 97.2957L176.592 97.0907C176.517 97.2026 176.425 97.3021 176.319 97.3859C176.16 97.5177 175.981 97.6238 175.789 97.7003C175.528 97.8017 175.249 97.8491 174.969 97.8398C174.602 97.8415 174.24 97.7592 173.911 97.5992C173.573 97.4356 173.271 97.207 173.022 96.9267C172.764 96.6411 172.558 96.3127 172.412 95.9562C172.262 95.5921 172.186 95.2018 172.188 94.808C172.187 94.4204 172.263 94.0364 172.412 93.6789C172.557 93.325 172.766 93.0006 173.028 92.7221C173.282 92.4517 173.583 92.2294 173.916 92.066C174.243 91.9049 174.604 91.8217 174.969 91.8227C175.228 91.8165 175.486 91.8601 175.729 91.9512C175.917 92.0234 176.094 92.1229 176.253 92.2464C176.376 92.3384 176.483 92.448 176.573 92.5717L176.478 92.4022C176.469 92.3178 176.483 92.2325 176.518 92.1551C176.553 92.0778 176.608 92.0111 176.677 91.9621C176.88 91.8457 177.114 91.7933 177.347 91.8117C177.563 91.7944 177.78 91.84 177.97 91.943C178.03 91.9837 178.081 92.0358 178.12 92.0963C178.16 92.1568 178.187 92.2246 178.2 92.2956C178.228 92.4462 178.241 92.599 178.241 92.7522V96.9212C178.241 97.0716 178.228 97.2217 178.2 97.3695C178.187 97.4395 178.16 97.506 178.12 97.5652C178.081 97.6244 178.03 97.675 177.97 97.714C177.776 97.8131 177.559 97.8566 177.342 97.8398ZM175.236 96.0409C175.44 96.0422 175.639 95.9853 175.811 95.8769C175.982 95.7675 176.124 95.616 176.221 95.4368C176.322 95.2469 176.374 95.0343 176.371 94.8189C176.375 94.6019 176.321 94.3877 176.215 94.1983C176.111 94.0204 175.962 93.8726 175.783 93.7691C175.609 93.6613 175.408 93.6044 175.204 93.6051C174.984 93.6017 174.768 93.6605 174.58 93.7746C174.402 93.8859 174.253 94.0388 174.146 94.2202C174.036 94.4113 173.98 94.6287 173.984 94.849C173.981 95.0597 174.037 95.267 174.146 95.4477C174.255 95.629 174.409 95.7787 174.594 95.8824C174.79 95.9925 175.012 96.0473 175.236 96.0409Z" fill="#E35205" />
	<path d="M179.589 91.9073H180.917L182.585 91.8581C182.731 91.8582 182.876 91.8729 183.02 91.9018C183.159 91.9329 183.281 92.0173 183.359 92.1369C183.462 92.3335 183.507 92.5553 183.49 92.7766C183.505 92.9858 183.462 93.1952 183.364 93.3808C183.29 93.5044 183.17 93.5938 183.03 93.6296C182.885 93.6667 182.735 93.6851 182.585 93.6842L181.002 93.6487H179.539C179.447 93.6548 179.354 93.6385 179.269 93.6015C179.184 93.5644 179.109 93.5075 179.05 93.4355C178.94 93.2304 178.891 92.9977 178.911 92.7657C178.894 92.5369 178.953 92.309 179.08 92.1178C179.143 92.0458 179.221 91.9893 179.31 91.9528C179.398 91.9163 179.493 91.9007 179.589 91.9073ZM182.322 97.8533C181.965 97.8595 181.609 97.8144 181.264 97.7193C180.991 97.6443 180.741 97.5035 180.534 97.3093C180.334 97.113 180.187 96.8695 180.105 96.6012C180.006 96.2707 179.959 95.9266 179.966 95.5815V90.6743C179.964 90.5284 179.978 90.3827 180.007 90.2397C180.023 90.1732 180.053 90.1107 180.094 90.0557C180.134 90.0008 180.186 89.9546 180.245 89.9198C180.438 89.8208 180.654 89.7773 180.871 89.794C181.089 89.7772 181.307 89.8227 181.5 89.9253C181.619 90.0032 181.704 90.1249 181.735 90.2643C181.765 90.4117 181.78 90.562 181.778 90.7126V95.5077C181.777 95.6151 181.787 95.7223 181.808 95.8275C181.82 95.8976 181.852 95.963 181.899 96.0162C181.946 96.0603 182.005 96.0898 182.068 96.1009C182.158 96.1194 182.25 96.1277 182.342 96.1255C182.5 96.1242 182.659 96.1398 182.814 96.172C182.945 96.2012 183.06 96.2795 183.134 96.3907C183.225 96.5656 183.265 96.7628 183.249 96.9593C183.265 97.1765 183.219 97.3938 183.115 97.5854C183.078 97.6464 183.028 97.6985 182.968 97.7382C182.909 97.7778 182.841 97.804 182.771 97.815C182.622 97.8411 182.471 97.8539 182.32 97.8533H182.322Z" fill="#E35205" />
	<path d="M189.422 97.8699C189.247 97.88 189.073 97.8381 188.922 97.7496C188.812 97.6776 188.725 97.5775 188.667 97.4598C188.616 97.3477 188.575 97.2493 188.542 97.17L186.839 92.949C186.786 92.7912 186.759 92.626 186.759 92.4597C186.76 92.3964 186.773 92.3339 186.798 92.2758C186.823 92.2176 186.859 92.1649 186.904 92.1207C187.032 92.0091 187.182 91.9253 187.344 91.8747C187.575 91.7562 187.838 91.7177 188.093 91.7653C188.201 91.806 188.296 91.8724 188.372 91.9586C188.448 92.0449 188.502 92.1484 188.528 92.2601L189.422 94.6905L190.22 92.4542C190.259 92.3601 190.303 92.2688 190.354 92.1808C190.422 92.0692 190.516 91.9755 190.628 91.9075C190.77 91.8198 190.936 91.7778 191.103 91.7872C191.281 91.7772 191.457 91.819 191.612 91.9075C191.723 91.9762 191.816 92.0698 191.885 92.1808C191.938 92.2668 191.981 92.3586 192.014 92.4542L192.812 94.6905L193.657 92.405C193.731 92.1583 193.889 91.9449 194.102 91.8008C194.22 91.7503 194.348 91.7274 194.476 91.734C194.604 91.7407 194.728 91.7766 194.84 91.8391C195.076 91.9221 195.279 92.0782 195.42 92.2847C195.471 92.3917 195.495 92.5098 195.488 92.6282C195.482 92.7466 195.446 92.8616 195.384 92.9627L193.681 97.1673C193.642 97.27 193.598 97.3704 193.547 97.468C193.487 97.5793 193.4 97.6734 193.293 97.7414C193.151 97.8261 192.988 97.8661 192.823 97.8562C192.655 97.8657 192.488 97.8298 192.339 97.7523C192.224 97.6884 192.129 97.5937 192.066 97.4789C192.007 97.3699 191.957 97.2566 191.915 97.1399L191.095 94.9174L190.297 97.1399C190.239 97.2848 190.187 97.4133 190.141 97.5199C190.094 97.6284 190.009 97.7165 189.903 97.7687C189.753 97.8391 189.588 97.8737 189.422 97.8699Z" fill="#E35205" />
	<path d="M199.103 97.9601C198.603 97.9733 198.106 97.8801 197.645 97.6868C197.263 97.5189 196.922 97.2688 196.648 96.9541C196.393 96.6579 196.198 96.3154 196.074 95.9453C195.952 95.5878 195.889 95.213 195.888 94.8354C195.873 94.2716 196.011 93.7142 196.287 93.2225C196.563 92.7607 196.96 92.3827 197.435 92.1289C197.947 91.8527 198.521 91.7133 199.103 91.7243C199.518 91.7154 199.931 91.7916 200.316 91.9485C200.635 92.0818 200.922 92.279 201.161 92.5281C201.373 92.7505 201.541 93.0112 201.656 93.2963C201.76 93.545 201.816 93.8113 201.82 94.0809C201.835 94.2579 201.814 94.4361 201.759 94.6051C201.704 94.7741 201.616 94.9304 201.5 95.065C201.393 95.1728 201.265 95.2571 201.124 95.3126C200.983 95.3682 200.832 95.3937 200.68 95.3876H197.809C197.821 95.585 197.9 95.7723 198.034 95.918C198.172 96.0676 198.344 96.1836 198.534 96.257C198.738 96.3372 198.955 96.3781 199.174 96.3773C199.344 96.3783 199.513 96.3682 199.682 96.3472C199.809 96.331 199.935 96.3026 200.057 96.2624C200.161 96.2269 200.256 96.1886 200.346 96.1531L200.582 96.0629C200.646 96.0391 200.713 96.0226 200.781 96.0137C200.901 96.0055 201.019 96.0425 201.112 96.1176C201.227 96.2115 201.32 96.329 201.385 96.462C201.437 96.54 201.476 96.6259 201.5 96.7163C201.52 96.795 201.53 96.8757 201.53 96.9568C201.526 97.0607 201.497 97.1619 201.445 97.2523C201.394 97.3426 201.322 97.4194 201.235 97.4763C200.984 97.6522 200.701 97.7759 200.401 97.8399C199.974 97.9308 199.539 97.9711 199.103 97.9601ZM197.809 94.3843H199.723C199.819 94.3897 199.914 94.3669 199.997 94.3187C200.031 94.2855 200.057 94.2447 200.072 94.1996C200.088 94.1545 200.093 94.1063 200.087 94.059C200.09 93.9203 200.042 93.7852 199.953 93.679C199.859 93.5646 199.736 93.4769 199.597 93.4248C199.433 93.362 199.259 93.3313 199.083 93.3346C198.854 93.3295 198.626 93.3791 198.419 93.4794C198.236 93.5657 198.08 93.6987 197.965 93.8649C197.863 94.0186 197.808 94.1995 197.809 94.3843Z" fill="#E35205" />
	<path d="M208.501 97.96C208.002 97.9729 207.505 97.8798 207.044 97.6867C206.662 97.5188 206.323 97.2686 206.049 96.954C205.795 96.6578 205.6 96.3153 205.475 95.9452C205.351 95.5882 205.288 95.2131 205.286 94.8353C205.277 94.2721 205.419 93.7167 205.699 93.2278C205.97 92.7626 206.362 92.3798 206.834 92.1206C207.345 91.8448 207.92 91.7054 208.501 91.716C208.917 91.7071 209.33 91.7833 209.715 91.9402C210.034 92.0735 210.323 92.2707 210.562 92.5198C210.774 92.7427 210.942 93.0033 211.057 93.288C211.161 93.5368 211.215 93.8031 211.219 94.0726C211.233 94.2496 211.212 94.4278 211.158 94.5968C211.103 94.7658 211.015 94.9221 210.899 95.0567C210.792 95.1645 210.664 95.2488 210.523 95.3043C210.381 95.3599 210.23 95.3854 210.079 95.3793H207.222C207.233 95.5767 207.312 95.764 207.446 95.9097C207.586 96.0581 207.757 96.1739 207.946 96.2487C208.151 96.329 208.369 96.3698 208.589 96.369C208.758 96.3699 208.927 96.3599 209.094 96.3389C209.222 96.323 209.347 96.2946 209.469 96.2541C209.573 96.2186 209.671 96.1803 209.759 96.1448L209.997 96.0546C210.06 96.0311 210.126 96.0146 210.193 96.0054C210.314 95.997 210.433 96.0341 210.527 96.1093C210.643 96.2023 210.736 96.32 210.8 96.4537C210.853 96.5311 210.892 96.6171 210.915 96.708C210.936 96.7864 210.946 96.8674 210.945 96.9485C210.941 97.0524 210.912 97.1536 210.86 97.244C210.809 97.3343 210.737 97.4111 210.65 97.468C210.4 97.6445 210.116 97.7682 209.816 97.8315C209.385 97.9267 208.943 97.9698 208.501 97.96ZM207.222 94.3842H209.135C209.231 94.3899 209.326 94.3671 209.409 94.3186C209.444 94.2856 209.47 94.2449 209.486 94.1998C209.502 94.1547 209.508 94.1065 209.502 94.0589C209.504 93.9204 209.456 93.7857 209.368 93.6789C209.273 93.5656 209.15 93.4782 209.012 93.4247C208.848 93.3619 208.674 93.3312 208.498 93.3345C208.269 93.3287 208.041 93.3784 207.834 93.4793C207.652 93.5656 207.495 93.6986 207.38 93.8648C207.276 94.0177 207.22 94.199 207.222 94.3842Z" fill="#E35205" />
	<path d="M216.924 97.8396C216.694 97.8577 216.463 97.8032 216.265 97.6837C216.201 97.6414 216.148 97.5838 216.111 97.5161C216.073 97.4485 216.053 97.3727 216.052 97.2955L216.172 97.0905C216.098 97.2033 216.006 97.303 215.899 97.3858C215.735 97.5194 215.55 97.6255 215.352 97.7001C215.091 97.802 214.812 97.8495 214.532 97.8396C214.178 97.8345 213.829 97.7514 213.51 97.5963C213.173 97.4326 212.872 97.204 212.624 96.9237C212.365 96.6383 212.158 96.3099 212.012 95.9532C211.864 95.5886 211.789 95.1985 211.79 94.8051C211.789 94.4178 211.864 94.0341 212.012 93.676C212.158 93.3225 212.368 92.9983 212.629 92.7192C212.884 92.4488 213.185 92.2265 213.518 92.0631C213.844 91.9023 214.204 91.8191 214.568 91.8197C214.828 91.8136 215.087 91.8572 215.33 91.9482C215.518 92.0217 215.695 92.1211 215.855 92.2435C215.977 92.3362 216.085 92.4457 216.175 92.5688L216.079 92.3993C216.071 92.3148 216.085 92.2295 216.12 92.1522C216.155 92.0748 216.21 92.0082 216.279 91.9592C216.482 91.8427 216.716 91.7903 216.949 91.8088C217.165 91.7915 217.381 91.8371 217.572 91.94C217.692 92.0233 217.774 92.1498 217.802 92.2927C217.83 92.4433 217.843 92.5961 217.843 92.7492V96.9183C217.843 97.0687 217.829 97.2188 217.802 97.3666C217.773 97.5071 217.691 97.6308 217.572 97.7111C217.373 97.8144 217.148 97.8589 216.924 97.8396ZM214.822 96.0407C215.024 96.0424 215.223 95.9854 215.393 95.8767C215.567 95.7681 215.709 95.6165 215.806 95.4366C215.908 95.2467 215.96 95.0341 215.956 94.8187C215.961 94.6013 215.906 94.3868 215.798 94.1981C215.698 94.0188 215.553 93.8688 215.377 93.7635C215.203 93.6556 215.002 93.5988 214.797 93.5994C214.578 93.5956 214.361 93.6544 214.174 93.7689C213.995 93.8802 213.846 94.0331 213.739 94.2146C213.629 94.4054 213.572 94.6228 213.575 94.8433C213.573 95.0543 213.63 95.2616 213.739 95.442C213.848 95.6226 214.002 95.7722 214.185 95.8767C214.379 95.9869 214.599 96.0435 214.822 96.0407Z" fill="#E35205" />
	<path d="M219.171 91.9073H220.5L222.167 91.858C222.313 91.8582 222.459 91.8729 222.602 91.9018C222.741 91.9329 222.863 92.0173 222.941 92.1369C223.044 92.3335 223.09 92.5552 223.072 92.7766C223.088 92.9858 223.044 93.1952 222.947 93.3808C222.871 93.503 222.752 93.592 222.613 93.6295C222.467 93.6667 222.318 93.6851 222.167 93.6842L220.585 93.6487H219.122C219.029 93.6552 218.936 93.6392 218.851 93.6021C218.766 93.5649 218.691 93.5078 218.633 93.4354C218.522 93.2304 218.474 92.9977 218.493 92.7657C218.476 92.5369 218.536 92.309 218.663 92.1178C218.725 92.0456 218.804 91.989 218.892 91.9525C218.98 91.9159 219.076 91.9004 219.171 91.9073ZM221.905 97.8533C221.549 97.8595 221.193 97.8144 220.85 97.7193C220.576 97.6437 220.325 97.503 220.117 97.3092C219.918 97.1123 219.77 96.869 219.688 96.6012C219.591 96.2702 219.545 95.9263 219.551 95.5815V90.6743C219.55 90.5284 219.563 90.3827 219.592 90.2396C219.608 90.1733 219.637 90.1108 219.677 90.0558C219.718 90.0009 219.769 89.9546 219.827 89.9198C220.021 89.8208 220.239 89.7773 220.456 89.794C220.674 89.7772 220.892 89.8227 221.085 89.9252C221.204 90.0032 221.289 90.1249 221.32 90.2642C221.349 90.4119 221.364 90.5621 221.364 90.7126V95.5077C221.361 95.6151 221.371 95.7225 221.394 95.8275C221.406 95.8976 221.437 95.9629 221.484 96.0161C221.531 96.0609 221.59 96.0904 221.653 96.1009C221.743 96.1194 221.835 96.1276 221.927 96.1255C222.085 96.124 222.242 96.1395 222.397 96.172C222.528 96.2012 222.642 96.2794 222.717 96.3907C222.808 96.5656 222.848 96.7627 222.832 96.9593C222.848 97.1762 222.803 97.3934 222.701 97.5853C222.663 97.6458 222.612 97.6974 222.553 97.737C222.493 97.7766 222.426 97.8032 222.356 97.815C222.205 97.8412 222.053 97.854 221.9 97.8533H221.905Z" fill="#E35205" />
</svg>
